{
	"buffers":[{
		"uri":"data:application/octet-stream;base64,",
		"byteLength":104448
	}],
	"meshes":[{
		"name":"圆环体",
		"primitives":[{
			"attributes":{
				"POSITION":1,
				"NORMAL":2,
				"TEXCOORD_0":3
			},
			"indices":0
		}]
	}],
	"asset":{
		"version":"2.0",
		"generator":""
	},
	"scenes":[{
		"nodes":[0]
	}],
	"nodes":[{
		"name":"圆环体",
		"mesh":0,
		"translation":[0.0,
		0.2855331003665924,
		0.0],
		"rotation":[0.0,
		0.0,
		0.0,
		-1.0],
		"scale":[1.0,
		1.0,
		1.0]
	}],
	"accessors":[{
		"bufferView":0,
		"type":"SCALAR",
		"componentType":5123,
		"min":[0],
		"count":3072,
		"byteOffset":0,
		"max":[3071]
	},
	{
		"bufferView":1,
		"type":"VEC3",
		"componentType":5126,
		"min":[-1.6151471138000489,
		-0.28424257040023806,
		-1.6151471138000489],
		"count":3072,
		"byteOffset":0,
		"max":[1.6151471138000489,
		0.28424257040023806,
		1.6151471138000489]
	},
	{
		"bufferView":1,
		"type":"VEC3",
		"componentType":5126,
		"min":[-1.0,
		-0.9999788999557495,
		-1.0],
		"count":3072,
		"byteOffset":12,
		"max":[1.0,
		0.9999788999557495,
		1.0]
	},
	{
		"bufferView":1,
		"type":"VEC2",
		"componentType":5126,
		"min":[0.0,
		0.0],
		"count":3072,
		"byteOffset":24,
		"max":[1.0,
		1.0]
	}],
	"bufferViews":[{
		"buffer":0,
		"byteOffset":0,
		"byteLength":6144,
		"target":34963
	},
	{
		"buffer":0,
		"byteOffset":6144,
		"byteLength":98304,
		"target":34962,
		"byteStride":32
	}]
}