{
	"asset":{
		"version":"2.0",
		"generator":""
	},
	"scenes":[{
		"nodes":[0]
	}],
	"nodes":[{
		"name":"Scene 0",
		"children":[1]
	},
	{
		"name":"Obj3d66-691525-13-505",
		"mesh":0,
		"translation":[0.0,
		0.2037000060081482,
		0.0],
		"rotation":[-2.8370965310386966e-7,
		0.7071067690849304,
		0.7071067690849304,
		2.8370965310386966e-7],
		"scale":[0.9999999403953552,
		0.9999999403953552,
		0.9999999403953552]
	}],
	"meshes":[{
		"name":"Obj3d66-691525-13-505",
		"primitives":[{
			"attributes":{
				"POSITION":1,
				"NORMAL":2,
				"TEXCOORD_0":3
			},
			"indices":0
		}]
	}],
	"accessors":[{
		"min":[0],
		"bufferView":0,
		"type":"SCALAR",
		"max":[1307],
		"count":1308,
		"componentType":5123,
		"byteOffset":0
	},
	{
		"min":[-0.09625594317913056,
		-0.06136967986822128,
		-0.20370665192604066],
		"bufferView":1,
		"type":"VEC3",
		"max":[0.0627918541431427,
		0.06136970967054367,
		1.1083582639694214],
		"count":1308,
		"componentType":5126,
		"byteOffset":0
	},
	{
		"min":[-1.0,
		-0.9998838305473328,
		-1.0],
		"bufferView":1,
		"type":"VEC3",
		"max":[1.0,
		0.999884307384491,
		1.0],
		"count":1308,
		"componentType":5126,
		"byteOffset":12
	},
	{
		"min":[0.023399829864501954,
		-0.982696533203125],
		"bufferView":1,
		"type":"VEC2",
		"max":[0.9722900390625,
		-0.036299705505371097],
		"count":1308,
		"componentType":5126,
		"byteOffset":24
	}],
	"bufferViews":[{
		"buffer":0,
		"byteOffset":0,
		"byteLength":2616,
		"target":34963
	},
	{
		"buffer":0,
		"byteOffset":2616,
		"byteLength":41856,
		"target":34962,
		"byteStride":32
	}],
	"buffers":[{
		"uri":"data:application/octet-stream;base64,",
		"byteLength":44472
	}]
}