{
	"asset":{
		"version":"2.0",
		"generator":""
	},
	"scenes":[{
		"nodes":[0]
	}],
	"nodes":[{
		"name":"Scene 0.2",
		"children":[1],
		"translation":[0.0,
		4.267758369445801,
		0.0],
		"rotation":[0.0,
		0.0,
		0.0,
		-1.0],
		"scale":[1.0,
		1.0,
		1.0]
	},
	{
		"name":"polySurface137",
		"mesh":0,
		"translation":[-48.2899169921875,
		5.860574245452881,
		-0.16294433176517487],
		"rotation":[0.0,
		0.0,
		0.0,
		-1.0],
		"scale":[1.0,
		1.0,
		1.0]
	}],
	"meshes":[{
		"name":"polySurface137",
		"primitives":[{
			"attributes":{
				"POSITION":1,
				"NORMAL":2,
				"TEXCOORD_0":3
			},
			"indices":0
		}]
	}],
	"accessors":[{
		"min":[0],
		"bufferView":0,
		"type":"SCALAR",
		"max":[3059],
		"count":3060,
		"componentType":5123,
		"byteOffset":0
	},
	{
		"min":[32.61748504638672,
		-10.126490592956543,
		-3.569706916809082],
		"bufferView":1,
		"type":"VEC3",
		"max":[63.96234893798828,
		-1.5946582555770875,
		3.8955957889556886],
		"count":3060,
		"componentType":5126,
		"byteOffset":0
	},
	{
		"min":[-1.0,
		-1.0,
		-0.9999785423278809],
		"bufferView":1,
		"type":"VEC3",
		"max":[1.0,
		1.0,
		0.9999785423278809],
		"count":3060,
		"componentType":5126,
		"byteOffset":12
	},
	{
		"min":[-13.78759765625,
		-0.9999847412109375],
		"bufferView":1,
		"type":"VEC2",
		"max":[14.78759765625,
		3.0],
		"count":3060,
		"componentType":5126,
		"byteOffset":24
	}],
	"bufferViews":[{
		"buffer":0,
		"byteOffset":0,
		"byteLength":6120,
		"target":34963
	},
	{
		"buffer":0,
		"byteOffset":6120,
		"byteLength":97920,
		"target":34962,
		"byteStride":32
	}],
	"buffers":[{
		"uri":"data:application/octet-stream;base64,",
		"byteLength":104040
	}]
}