{
	"asset":{
		"version":"2.0",
		"generator":""
	},
	"scenes":[{
		"nodes":[0]
	}],
	"nodes":[{
		"name":"官帽椅",
		"children":[1],
		"translation":[0.0,
		0.0,
		0.0],
		"rotation":[0.0,
		-0.7071067690849304,
		0.0,
		0.7071067690849304],
		"scale":[1.0,
		1.0,
		1.0]
	},
	{
		"name":"Obj3d66-12286137-687-778",
		"mesh":0,
		"translation":[-0.001869847415946424,
		0.06326458603143692,
		-0.0026662852615118028],
		"rotation":[-6.657902673623539e-8,
		0.0,
		0.0,
		-1.0],
		"scale":[0.3937009871006012,
		0.3937009871006012,
		0.3937009871006012]
	}],
	"meshes":[{
		"name":"Obj3d66-12286137-687-778",
		"primitives":[{
			"attributes":{
				"POSITION":1,
				"NORMAL":2,
				"TEXCOORD_0":3
			},
			"indices":0
		}]
	}],
	"accessors":[{
		"min":[0],
		"bufferView":0,
		"type":"SCALAR",
		"max":[17621],
		"count":17622,
		"componentType":5123,
		"byteOffset":0
	},
	{
		"min":[-0.7693719863891602,
		-0.12868057191371919,
		-0.6960486769676209],
		"bufferView":1,
		"type":"VEC3",
		"max":[0.5066717267036438,
		2.72505521774292,
		0.669266939163208],
		"count":17622,
		"componentType":5126,
		"byteOffset":0
	},
	{
		"min":[-1.0,
		-1.0,
		-1.0],
		"bufferView":1,
		"type":"VEC3",
		"max":[1.0,
		1.0,
		1.0],
		"count":17622,
		"componentType":5126,
		"byteOffset":12
	},
	{
		"min":[-8.69873046875,
		-13.969970703125],
		"bufferView":1,
		"type":"VEC2",
		"max":[7.400634765625,
		6.060302734375],
		"count":17622,
		"componentType":5126,
		"byteOffset":24
	},
	{
		"min":[0.0],
		"bufferView":2,
		"type":"SCALAR",
		"max":[3.0329999923706056],
		"count":3,
		"componentType":5126,
		"byteOffset":0
	},
	{
		"min":[-6.657902673623539e-8,
		0.0,
		0.0,
		-1.0],
		"bufferView":2,
		"type":"VEC4",
		"max":[-6.657902673623539e-8,
		0.0,
		0.0,
		-1.0],
		"count":3,
		"componentType":5126,
		"byteOffset":12
	}],
	"bufferViews":[{
		"buffer":0,
		"byteOffset":0,
		"byteLength":35244,
		"target":34963
	},
	{
		"buffer":0,
		"byteOffset":35244,
		"byteLength":563904,
		"target":34962,
		"byteStride":32
	},
	{
		"buffer":1,
		"byteOffset":0,
		"byteLength":60
	}],
	"buffers":[{
		"uri":"data:application/octet-stream;base64,",
		"byteLength":599148
	},
	{
		"uri":"data:application/octet-stream;base64,",
		"byteLength":60
	}],
	"animations":[{
		"samplers":[{
			"input":4,
			"interpolation":"LINEAR",
			"output":5
		}],
		"channels":[{
			"sampler":0,
			"target":{
				"node":1,
				"path":"rotation"
			}
		}]
	}]
}