{
	"buffers":[{
		"uri":"data:application/octet-stream;base64,",
		"byteLength":254592
	}],
	"meshes":[{
		"name":"桌子03",
		"primitives":[{
			"attributes":{
				"POSITION":1,
				"NORMAL":2
			},
			"indices":0
		}]
	}],
	"asset":{
		"version":"2.0",
		"generator":""
	},
	"scenes":[{
		"nodes":[0]
	}],
	"nodes":[{
		"name":"桌子03",
		"mesh":0,
		"translation":[0.0,
		0.3824999928474426,
		0.0],
		"rotation":[0.0,
		0.0,
		0.0,
		-1.0],
		"scale":[1.0,
		1.0,
		1.0]
	}],
	"accessors":[{
		"bufferView":0,
		"type":"SCALAR",
		"componentType":5123,
		"min":[0],
		"count":9792,
		"byteOffset":0,
		"max":[9791]
	},
	{
		"bufferView":1,
		"type":"VEC3",
		"componentType":5126,
		"min":[-0.699999988079071,
		-0.3824999928474426,
		-0.699999988079071],
		"count":9792,
		"byteOffset":0,
		"max":[0.699999988079071,
		0.3824999928474426,
		0.699999988079071]
	},
	{
		"bufferView":1,
		"type":"VEC3",
		"componentType":5126,
		"min":[-1.0,
		-1.0,
		-1.0],
		"count":9792,
		"byteOffset":12,
		"max":[1.0,
		1.0,
		1.0]
	}],
	"bufferViews":[{
		"buffer":0,
		"byteOffset":0,
		"byteLength":19584,
		"target":34963
	},
	{
		"buffer":0,
		"byteOffset":19584,
		"byteLength":235008,
		"target":34962,
		"byteStride":24
	}]
}