{
	"asset":{
		"version":"2.0",
		"generator":""
	},
	"scenes":[{
		"nodes":[0]
	}],
	"nodes":[{
		"name":"剑",
		"children":[1]
	},
	{
		"name":"Obj3d66-691525-60-792",
		"mesh":0,
		"translation":[-0.00011797987099271268,
		0.21587488055229188,
		-0.002821799600496888],
		"rotation":[0.7071067690849304,
		0.0,
		0.0,
		-0.7071067690849304],
		"scale":[1.0,
		0.9999999403953552,
		0.9999999403953552]
	}],
	"meshes":[{
		"name":"Obj3d66-691525-60-792",
		"primitives":[{
			"attributes":{
				"POSITION":1,
				"NORMAL":2,
				"TEXCOORD_0":3
			},
			"indices":0
		}]
	}],
	"accessors":[{
		"min":[0],
		"bufferView":0,
		"type":"SCALAR",
		"max":[1769],
		"count":1770,
		"componentType":5123,
		"byteOffset":0
	},
	{
		"min":[-0.07287568598985672,
		-0.05411422625184059,
		-0.21525771915912629],
		"bufferView":1,
		"type":"VEC3",
		"max":[0.07287570834159851,
		0.05370935797691345,
		1.3029805421829224],
		"count":1770,
		"componentType":5126,
		"byteOffset":0
	},
	{
		"min":[-1.0,
		-1.0,
		-1.0],
		"bufferView":1,
		"type":"VEC3",
		"max":[1.0,
		1.0,
		1.0],
		"count":1770,
		"componentType":5126,
		"byteOffset":12
	},
	{
		"min":[0.009155988693237305,
		-0.993255615234375],
		"bufferView":1,
		"type":"VEC2",
		"max":[0.9806976318359375,
		-0.006129026412963867],
		"count":1770,
		"componentType":5126,
		"byteOffset":24
	}],
	"bufferViews":[{
		"buffer":0,
		"byteOffset":0,
		"byteLength":3540,
		"target":34963
	},
	{
		"buffer":0,
		"byteOffset":3540,
		"byteLength":56640,
		"target":34962,
		"byteStride":32
	}],
	"buffers":[{
		"uri":"data:application/octet-stream;base64,",
		"byteLength":60180
	}]
}