{
	"asset":{
		"version":"2.0",
		"generator":""
	},
	"scenes":[{
		"nodes":[0]
	}],
	"nodes":[{
		"name":"枪",
		"children":[1]
	},
	{
		"name":"Obj3d66-691525-63-6",
		"mesh":0,
		"translation":[0.002409708919003606,
		0.9233031868934631,
		0.019069859758019449],
		"rotation":[0.7071067690849304,
		0.0,
		0.0,
		-0.7071067690849304],
		"scale":[1.0,
		0.9999999403953552,
		0.9999999403953552]
	}],
	"meshes":[{
		"name":"Obj3d66-691525-63-6",
		"primitives":[{
			"attributes":{
				"POSITION":1,
				"NORMAL":2,
				"TEXCOORD_0":3
			},
			"indices":0
		}]
	}],
	"accessors":[{
		"min":[0],
		"bufferView":0,
		"type":"SCALAR",
		"max":[5573],
		"count":5574,
		"componentType":5123,
		"byteOffset":0
	},
	{
		"min":[-0.037249334156513217,
		-0.09273044019937515,
		-0.921134889125824],
		"bufferView":1,
		"type":"VEC3",
		"max":[0.02937788888812065,
		0.023374445736408235,
		1.1828837394714356],
		"count":5574,
		"componentType":5126,
		"byteOffset":0
	},
	{
		"min":[-1.0,
		-1.0,
		-0.9951349496841431],
		"bufferView":1,
		"type":"VEC3",
		"max":[1.0,
		1.0,
		1.0],
		"count":5574,
		"componentType":5126,
		"byteOffset":12
	},
	{
		"min":[-0.23094558715820313,
		-1.086822509765625],
		"bufferView":1,
		"type":"VEC2",
		"max":[1.31671142578125,
		-0.16254043579101563],
		"count":5574,
		"componentType":5126,
		"byteOffset":24
	}],
	"bufferViews":[{
		"buffer":0,
		"byteOffset":0,
		"byteLength":11148,
		"target":34963
	},
	{
		"buffer":0,
		"byteOffset":11148,
		"byteLength":178368,
		"target":34962,
		"byteStride":32
	}],
	"buffers":[{
		"uri":"data:application/octet-stream;base64,",
		"byteLength":189516
	}]
}