{
	"buffers":[{
		"uri":"data:application/octet-stream;base64,",
		"byteLength":620976
	}],
	"meshes":[{
		"name":"柜子02",
		"primitives":[{
			"attributes":{
				"POSITION":1,
				"NORMAL":2,
				"TEXCOORD_0":3
			},
			"indices":0
		}]
	}],
	"asset":{
		"version":"2.0",
		"generator":""
	},
	"scenes":[{
		"nodes":[0]
	}],
	"nodes":[{
		"name":"柜子02",
		"mesh":0,
		"translation":[0.0,
		1.1163734197616578,
		0.0],
		"rotation":[0.0,
		0.0,
		0.0,
		-1.0],
		"scale":[1.0,
		1.0,
		1.0]
	}],
	"accessors":[{
		"bufferView":0,
		"type":"SCALAR",
		"componentType":5123,
		"min":[0],
		"count":18264,
		"byteOffset":0,
		"max":[18263]
	},
	{
		"bufferView":1,
		"type":"VEC3",
		"componentType":5126,
		"min":[-0.6768946051597595,
		-1.1136456727981568,
		-0.3646666407585144],
		"count":18264,
		"byteOffset":0,
		"max":[0.6768946051597595,
		1.1136456727981568,
		0.3646666407585144]
	},
	{
		"bufferView":1,
		"type":"VEC3",
		"componentType":5126,
		"min":[-1.0,
		-1.0,
		-1.0],
		"count":18264,
		"byteOffset":12,
		"max":[1.0,
		1.0,
		1.0]
	},
	{
		"bufferView":1,
		"type":"VEC2",
		"componentType":5126,
		"min":[-26.84994888305664,
		-19.985389709472658],
		"count":18264,
		"byteOffset":24,
		"max":[27.519685745239259,
		21.985393524169923]
	}],
	"bufferViews":[{
		"buffer":0,
		"byteOffset":0,
		"byteLength":36528,
		"target":34963
	},
	{
		"buffer":0,
		"byteOffset":36528,
		"byteLength":584448,
		"target":34962,
		"byteStride":32
	}]
}