{
	"asset":{
		"version":"2.0",
		"generator":""
	},
	"scenes":[{
		"nodes":[0]
	}],
	"nodes":[{
		"name":"交椅",
		"mesh":0,
		"translation":[0.0,
		0.0185661930590868,
		0.0],
		"rotation":[4.707847978124846e-8,
		-0.7071067690849304,
		4.707847978124846e-8,
		0.7071067690849304],
		"scale":[0.3937009871006012,
		0.3937009871006012,
		0.3937009871006012]
	}],
	"meshes":[{
		"name":"交椅",
		"primitives":[{
			"attributes":{
				"POSITION":1
			},
			"indices":0
		}]
	}],
	"accessors":[{
		"min":[0],
		"bufferView":0,
		"type":"SCALAR",
		"max":[10747],
		"count":63222,
		"componentType":5123,
		"byteOffset":0
	},
	{
		"min":[-1.2499797344207764,
		-0.03545582666993141,
		-3.8905227184295656],
		"bufferView":1,
		"type":"VEC3",
		"max":[1.2554028034210206,
		3.1033284664154054,
		3.912363290786743],
		"count":10748,
		"componentType":5126,
		"byteOffset":0
	}],
	"bufferViews":[{
		"buffer":0,
		"byteOffset":0,
		"byteLength":126444,
		"target":34963
	},
	{
		"buffer":0,
		"byteOffset":126444,
		"byteLength":128976,
		"target":34962
	}],
	"buffers":[{
		"uri":"data:application/octet-stream;base64,",
		"byteLength":255420
	}]
}