{
	"buffers":[{
		"uri":"data:application/octet-stream;base64,",
		"byteLength":13056
	}],
	"meshes":[{
		"name":"圆锥体",
		"primitives":[{
			"attributes":{
				"POSITION":1,
				"NORMAL":2,
				"TEXCOORD_0":3
			},
			"indices":0
		}]
	}],
	"asset":{
		"version":"2.0",
		"generator":""
	},
	"scenes":[{
		"nodes":[0]
	}],
	"nodes":[{
		"name":"圆锥体",
		"mesh":0,
		"translation":[0.0,
		1.0,
		0.0],
		"rotation":[0.0,
		0.0,
		0.0,
		-1.0],
		"scale":[1.0,
		1.0,
		1.0]
	}],
	"accessors":[{
		"bufferView":0,
		"type":"SCALAR",
		"componentType":5123,
		"min":[0],
		"count":384,
		"byteOffset":0,
		"max":[383]
	},
	{
		"bufferView":1,
		"type":"VEC3",
		"componentType":5126,
		"min":[-1.0,
		-1.0,
		-1.0],
		"count":384,
		"byteOffset":0,
		"max":[1.0,
		1.0,
		1.0]
	},
	{
		"bufferView":1,
		"type":"VEC3",
		"componentType":5126,
		"min":[-0.8944334387779236,
		-1.0,
		-0.8944334387779236],
		"count":384,
		"byteOffset":12,
		"max":[0.8944334387779236,
		1.0,
		0.8944334387779236]
	},
	{
		"bufferView":1,
		"type":"VEC2",
		"componentType":5126,
		"min":[0.0,
		0.0],
		"count":384,
		"byteOffset":24,
		"max":[1.0,
		1.0]
	}],
	"bufferViews":[{
		"buffer":0,
		"byteOffset":0,
		"byteLength":768,
		"target":34963
	},
	{
		"buffer":0,
		"byteOffset":768,
		"byteLength":12288,
		"target":34962,
		"byteStride":32
	}]
}