{
	"asset":{
		"version":"2.0",
		"generator":""
	},
	"scenes":[{
		"nodes":[0]
	}],
	"nodes":[{
		"name":"Scene 0.1",
		"children":[1]
	},
	{
		"name":"Sketchfab_Scene",
		"children":[2],
		"translation":[0.0,
		-3.1785850524902345,
		0.0],
		"rotation":[0.0,
		0.0,
		0.0,
		-1.0],
		"scale":[1.0,
		1.0,
		1.0]
	},
	{
		"name":"Sketchfab_model",
		"children":[3],
		"translation":[0.0,
		0.0,
		0.0],
		"rotation":[0.7071067690849304,
		0.0,
		0.0,
		-0.7071067690849304],
		"scale":[1.0,
		0.9999999403953552,
		0.9999999403953552]
	},
	{
		"name":"root",
		"children":[4]
	},
	{
		"name":"GLTF_SceneRootNode",
		"children":[5],
		"translation":[0.0,
		0.0,
		0.0],
		"rotation":[-0.7071067690849304,
		0.0,
		0.0,
		-0.7071067690849304],
		"scale":[1.0,
		0.9999999403953552,
		0.9999999403953552]
	},
	{
		"name":"node_0_35",
		"children":[6,
		7,
		8,
		9,
		10]
	},
	{
		"name":"custom_vis_LIGHT_BEACON_02_mcx_VC_5",
		"children":[11]
	},
	{
		"name":"custom_vis_LIGHT_BEACON_04_mcx_VC_6",
		"children":[12]
	},
	{
		"name":"custom_vis_LIGHT_LOGO_00_mcx_VC_7",
		"children":[13]
	},
	{
		"name":"node_22_8",
		"children":[14]
	},
	{
		"name":"node_23_9",
		"children":[15]
	},
	{
		"name":"Object_5",
		"mesh":0
	},
	{
		"name":"Object_7",
		"mesh":1
	},
	{
		"name":"Object_9",
		"mesh":2
	},
	{
		"name":"Object_11",
		"mesh":3
	},
	{
		"name":"Object_13",
		"mesh":4
	}],
	"meshes":[{
		"name":"Object_5",
		"primitives":[{
			"attributes":{
				"POSITION":1,
				"NORMAL":2,
				"TEXCOORD_0":3
			},
			"indices":0
		}]
	},
	{
		"name":"Object_7",
		"primitives":[{
			"attributes":{
				"POSITION":5,
				"NORMAL":6,
				"TEXCOORD_0":7
			},
			"indices":4
		}]
	},
	{
		"name":"Object_9",
		"primitives":[{
			"attributes":{
				"POSITION":9,
				"NORMAL":10,
				"TEXCOORD_0":11
			},
			"indices":8
		}]
	},
	{
		"name":"Object_11",
		"primitives":[{
			"attributes":{
				"POSITION":13,
				"NORMAL":14,
				"TEXCOORD_0":15
			},
			"indices":12
		}]
	},
	{
		"name":"Object_13",
		"primitives":[{
			"attributes":{
				"POSITION":17,
				"NORMAL":18,
				"TEXCOORD_0":19
			},
			"indices":16
		}]
	}],
	"accessors":[{
		"min":[0],
		"bufferView":0,
		"type":"SCALAR",
		"max":[269],
		"count":270,
		"componentType":5123,
		"byteOffset":0
	},
	{
		"min":[-17.781936645507814,
		-4.937222003936768,
		6.357016563415527],
		"bufferView":1,
		"type":"VEC3",
		"max":[17.781936645507814,
		0.2612714469432831,
		7.484270095825195],
		"count":270,
		"componentType":5126,
		"byteOffset":0
	},
	{
		"min":[-0.9261020421981812,
		-0.8715773820877075,
		0.3287613093852997],
		"bufferView":1,
		"type":"VEC3",
		"max":[0.9261020421981812,
		0.9397822618484497,
		0.9983159899711609],
		"count":270,
		"componentType":5126,
		"byteOffset":12
	},
	{
		"min":[0.9141998291015625,
		0.4671478271484375],
		"bufferView":1,
		"type":"VEC2",
		"max":[0.9994049072265625,
		0.5516204833984375],
		"count":270,
		"componentType":5126,
		"byteOffset":24
	},
	{
		"min":[0],
		"bufferView":2,
		"type":"SCALAR",
		"max":[269],
		"count":270,
		"componentType":5123,
		"byteOffset":0
	},
	{
		"min":[-17.781890869140626,
		-4.937188148498535,
		6.357015132904053],
		"bufferView":3,
		"type":"VEC3",
		"max":[17.781890869140626,
		0.26125258207321169,
		7.484270095825195],
		"count":270,
		"componentType":5126,
		"byteOffset":0
	},
	{
		"min":[-0.9260993599891663,
		-0.8715773820877075,
		0.3287642002105713],
		"bufferView":3,
		"type":"VEC3",
		"max":[0.9260993599891663,
		0.9397905468940735,
		0.9983212351799011],
		"count":270,
		"componentType":5126,
		"byteOffset":12
	},
	{
		"min":[0.914306640625,
		0.38242340087890627],
		"bufferView":3,
		"type":"VEC2",
		"max":[0.99871826171875,
		0.46553802490234377],
		"count":270,
		"componentType":5126,
		"byteOffset":24
	},
	{
		"min":[0],
		"bufferView":4,
		"type":"SCALAR",
		"max":[251],
		"count":252,
		"componentType":5123,
		"byteOffset":0
	},
	{
		"min":[-0.9185212850570679,
		8.013531684875489,
		-62.2379264831543],
		"bufferView":5,
		"type":"VEC3",
		"max":[0.9184902906417847,
		27.440994262695314,
		-32.233787536621097],
		"count":252,
		"componentType":5126,
		"byteOffset":0
	},
	{
		"min":[-0.9985978603363037,
		-0.03343906253576279,
		-0.1382877230644226],
		"bufferView":5,
		"type":"VEC3",
		"max":[0.9985978603363037,
		0.9634341597557068,
		0.7612341642379761],
		"count":252,
		"componentType":5126,
		"byteOffset":12
	},
	{
		"min":[0.02254962921142578,
		0.38832855224609377],
		"bufferView":5,
		"type":"VEC2",
		"max":[0.897735595703125,
		0.9904327392578125],
		"count":252,
		"componentType":5126,
		"byteOffset":24
	},
	{
		"min":[0],
		"bufferView":6,
		"type":"SCALAR",
		"max":[833],
		"count":834,
		"componentType":5123,
		"byteOffset":0
	},
	{
		"min":[-4.461575508117676,
		-3.6691672801971437,
		-9.646759033203125],
		"bufferView":7,
		"type":"VEC3",
		"max":[4.462761878967285,
		0.685419499874115,
		41.03181457519531],
		"count":834,
		"componentType":5126,
		"byteOffset":0
	},
	{
		"min":[-0.9999970197677612,
		-0.991789698600769,
		-1.0],
		"bufferView":7,
		"type":"VEC3",
		"max":[0.9999970197677612,
		0.9848109483718872,
		1.0],
		"count":834,
		"componentType":5126,
		"byteOffset":12
	},
	{
		"min":[0.00279998779296875,
		0.11410903930664063],
		"bufferView":7,
		"type":"VEC2",
		"max":[0.9231109619140625,
		0.944976806640625],
		"count":834,
		"componentType":5126,
		"byteOffset":24
	},
	{
		"min":[0],
		"bufferView":8,
		"type":"SCALAR",
		"max":[12752],
		"count":12753,
		"componentType":5123,
		"byteOffset":0
	},
	{
		"min":[-44.70896530151367,
		-5.485306739807129,
		-64.59131622314453],
		"bufferView":9,
		"type":"VEC3",
		"max":[44.70896530151367,
		10.159337997436524,
		48.63605499267578],
		"count":12753,
		"componentType":5126,
		"byteOffset":0
	},
	{
		"min":[-1.0,
		-1.0,
		-1.0],
		"bufferView":9,
		"type":"VEC3",
		"max":[1.0,
		1.0,
		1.0],
		"count":12753,
		"componentType":5126,
		"byteOffset":12
	},
	{
		"min":[0.0009599924087524414,
		0.0049599409103393559],
		"bufferView":9,
		"type":"VEC2",
		"max":[0.9968109130859375,
		0.9988250732421875],
		"count":12753,
		"componentType":5126,
		"byteOffset":24
	}],
	"bufferViews":[{
		"buffer":0,
		"byteOffset":0,
		"byteLength":540,
		"target":34963
	},
	{
		"buffer":0,
		"byteOffset":540,
		"byteLength":8640,
		"target":34962,
		"byteStride":32
	},
	{
		"buffer":1,
		"byteOffset":0,
		"byteLength":540,
		"target":34963
	},
	{
		"buffer":1,
		"byteOffset":540,
		"byteLength":8640,
		"target":34962,
		"byteStride":32
	},
	{
		"buffer":2,
		"byteOffset":0,
		"byteLength":504,
		"target":34963
	},
	{
		"buffer":2,
		"byteOffset":504,
		"byteLength":8064,
		"target":34962,
		"byteStride":32
	},
	{
		"buffer":3,
		"byteOffset":0,
		"byteLength":1668,
		"target":34963
	},
	{
		"buffer":3,
		"byteOffset":1668,
		"byteLength":26688,
		"target":34962,
		"byteStride":32
	},
	{
		"buffer":4,
		"byteOffset":0,
		"byteLength":25506,
		"target":34963
	},
	{
		"buffer":4,
		"byteOffset":25508,
		"byteLength":408096,
		"target":34962,
		"byteStride":32
	}],
	"buffers":[{
		"uri":"data:application/octet-stream;base64,",
		"byteLength":9180
	},
	{
		"uri":"data:application/octet-stream;base64,",
		"byteLength":9180
	},
	{
		"uri":"data:application/octet-stream;base64,",
		"byteLength":8568
	},
	{
		"uri":"data:application/octet-stream;base64,",
		"byteLength":28356
	},
	{
		"uri":"data:application/octet-stream;base64,",
		"byteLength":433604
	}]
}