{
	"asset":{
		"version":"2.0",
		"generator":""
	},
	"scenes":[{
		"nodes":[0]
	}],
	"nodes":[{
		"name":"弓箭",
		"children":[1,
		2]
	},
	{
		"name":"Obj3d66-691525-10-709",
		"mesh":0,
		"translation":[0.18817047774791718,
		0.48473823070526125,
		0.06169837340712547],
		"rotation":[0.7071067690849304,
		0.0,
		0.0,
		-0.7071067690849304],
		"scale":[1.0,
		0.9999999403953552,
		0.9999999403953552]
	},
	{
		"name":"Obj3d66-691525-53-808",
		"mesh":1,
		"translation":[-0.10099155455827713,
		0.596372127532959,
		-0.01193749625235796],
		"rotation":[0.7071067690849304,
		4.214684778958144e-8,
		4.214684778958144e-8,
		-0.7071067690849304],
		"scale":[1.0,
		0.9999999403953552,
		0.9999999403953552]
	}],
	"meshes":[{
		"name":"Obj3d66-691525-10-709",
		"primitives":[{
			"attributes":{
				"POSITION":1,
				"NORMAL":2,
				"TEXCOORD_0":3
			},
			"indices":0
		}]
	},
	{
		"name":"Obj3d66-691525-53-808",
		"primitives":[{
			"attributes":{
				"POSITION":5,
				"NORMAL":6,
				"TEXCOORD_0":7
			},
			"indices":4
		}]
	}],
	"accessors":[{
		"min":[0],
		"bufferView":0,
		"type":"SCALAR",
		"max":[2303],
		"count":2304,
		"componentType":5123,
		"byteOffset":0
	},
	{
		"min":[-0.14614547789096833,
		-0.08963130414485932,
		-0.18914632499217988],
		"bufferView":1,
		"type":"VEC3",
		"max":[0.150245800614357,
		0.011407630518078804,
		0.5051198601722717],
		"count":2304,
		"componentType":5126,
		"byteOffset":0
	},
	{
		"min":[-0.9995831251144409,
		-1.0,
		-0.9998818039894104],
		"bufferView":1,
		"type":"VEC3",
		"max":[0.9999541640281677,
		1.0,
		1.0],
		"count":2304,
		"componentType":5126,
		"byteOffset":12
	},
	{
		"min":[0.0072296857833862309,
		-0.989990234375],
		"bufferView":1,
		"type":"VEC2",
		"max":[0.992095947265625,
		-0.008852005004882813],
		"count":2304,
		"componentType":5126,
		"byteOffset":24
	},
	{
		"min":[0],
		"bufferView":2,
		"type":"SCALAR",
		"max":[2915],
		"count":2916,
		"componentType":5123,
		"byteOffset":0
	},
	{
		"min":[-0.11872071772813797,
		-0.023127028718590738,
		-0.5766274333000183],
		"bufferView":3,
		"type":"VEC3",
		"max":[0.06130893528461456,
		0.022464323788881303,
		0.5766230821609497],
		"count":2916,
		"componentType":5126,
		"byteOffset":0
	},
	{
		"min":[-0.9625290036201477,
		-0.9989709854125977,
		-1.0],
		"bufferView":3,
		"type":"VEC3",
		"max":[1.0,
		0.9989709854125977,
		1.0],
		"count":2916,
		"componentType":5126,
		"byteOffset":12
	},
	{
		"min":[0.00597071647644043,
		0.004132986068725586],
		"bufferView":3,
		"type":"VEC2",
		"max":[0.988983154296875,
		0.9801788330078125],
		"count":2916,
		"componentType":5126,
		"byteOffset":24
	}],
	"bufferViews":[{
		"buffer":0,
		"byteOffset":0,
		"byteLength":4608,
		"target":34963
	},
	{
		"buffer":0,
		"byteOffset":4608,
		"byteLength":73728,
		"target":34962,
		"byteStride":32
	},
	{
		"buffer":1,
		"byteOffset":0,
		"byteLength":5832,
		"target":34963
	},
	{
		"buffer":1,
		"byteOffset":5832,
		"byteLength":93312,
		"target":34962,
		"byteStride":32
	}],
	"buffers":[{
		"uri":"data:application/octet-stream;base64,",
		"byteLength":78336
	},
	{
		"uri":"data:application/octet-stream;base64,",
		"byteLength":99144
	}]
}