{
	"asset":{
		"version":"2.0",
		"generator":""
	},
	"scenes":[{
		"nodes":[0]
	}],
	"nodes":[{
		"name":"长刀",
		"children":[1]
	},
	{
		"name":"Obj3d66-691525-3-353",
		"mesh":0,
		"translation":[0.0004706356849055737,
		0.9788409471511841,
		-0.004218813497573137],
		"rotation":[-2.8370965310386966e-7,
		0.7071067690849304,
		0.7071067690849304,
		2.8370965310386966e-7],
		"scale":[0.9999999403953552,
		0.9999999403953552,
		0.9999999403953552]
	}],
	"meshes":[{
		"name":"Obj3d66-691525-3-353",
		"primitives":[{
			"attributes":{
				"POSITION":1,
				"NORMAL":2,
				"TEXCOORD_0":3
			},
			"indices":0
		}]
	}],
	"accessors":[{
		"min":[0],
		"bufferView":0,
		"type":"SCALAR",
		"max":[1583],
		"count":1584,
		"componentType":5123,
		"byteOffset":0
	},
	{
		"min":[-0.1583251804113388,
		-0.0644981861114502,
		-0.9797986745834351],
		"bufferView":1,
		"type":"VEC3",
		"max":[0.08296234160661698,
		0.06449849158525467,
		1.142299771308899],
		"count":1584,
		"componentType":5126,
		"byteOffset":0
	},
	{
		"min":[-0.9999998807907105,
		-1.0,
		-1.0],
		"bufferView":1,
		"type":"VEC3",
		"max":[0.9999998807907105,
		1.0,
		1.0],
		"count":1584,
		"componentType":5126,
		"byteOffset":12
	},
	{
		"min":[0.009799957275390625,
		-0.9930877685546875],
		"bufferView":1,
		"type":"VEC2",
		"max":[0.9836883544921875,
		-0.007500052452087402],
		"count":1584,
		"componentType":5126,
		"byteOffset":24
	}],
	"bufferViews":[{
		"buffer":0,
		"byteOffset":0,
		"byteLength":3168,
		"target":34963
	},
	{
		"buffer":0,
		"byteOffset":3168,
		"byteLength":50688,
		"target":34962,
		"byteStride":32
	}],
	"buffers":[{
		"uri":"data:application/octet-stream;base64,",
		"byteLength":53856
	}]
}