{
	"asset":{
		"version":"2.0",
		"generator":""
	},
	"scenes":[{
		"nodes":[0]
	}],
	"nodes":[{
		"name":"古代书生",
		"mesh":0
	}],
	"meshes":[{
		"name":"古代书生",
		"primitives":[{
			"attributes":{
				"POSITION":1,
				"NORMAL":2,
				"TEXCOORD_0":3
			},
			"indices":0,
			"material":0
		}]
	}],
	"accessors":[{
		"bufferView":0,
		"type":"SCALAR",
		"componentType":5123,
		"count":16794,
		"byteOffset":0,
		"min":[0],
		"max":[16793]
	},
	{
		"bufferView":1,
		"type":"VEC3",
		"componentType":5126,
		"count":16794,
		"byteOffset":0,
		"min":[-0.32506659626960757,
		-0.0034250139724463226,
		-0.35596922039985659],
		"max":[0.3745320737361908,
		1.8310537338256837,
		0.23328010737895966]
	},
	{
		"bufferView":1,
		"type":"VEC3",
		"componentType":5126,
		"count":16794,
		"byteOffset":12,
		"min":[-0.9995004534721375,
		-0.9978851079940796,
		-0.999736487865448],
		"max":[0.9998756051063538,
		0.9999284148216248,
		0.999952495098114]
	},
	{
		"bufferView":1,
		"type":"VEC2",
		"componentType":5126,
		"count":16794,
		"byteOffset":24,
		"min":[0.0003304103738628328,
		0.0003304103738628328],
		"max":[0.9990243911743164,
		0.9966155290603638]
	}],
	"bufferViews":[{
		"buffer":0,
		"byteOffset":0,
		"byteLength":33588,
		"target":34963
	},
	{
		"buffer":0,
		"byteOffset":33588,
		"byteLength":537408,
		"target":34962,
		"byteStride":32
	}],
	"buffers":[{
		"uri":"data:application/octet-stream;base64,",
		"byteLength":570996
	}],
	"materials":[{
		"pbrMetallicRoughness":{
			"baseColorFactor":[0.8,
			0.8,
			0.8,
			1.0],
			"metallicFactor":1.0,
			"roughnessFactor":1.0
		},
		"emissiveFactor":[0.0,
		0.0,
		0.0],
		"alphaMode":"OPAQUE",
		"doubleSided":false,
		"name":"古代书生"
	}]
}