{
	"asset":{
		"version":"2.0",
		"generator":""
	},
	"scenes":[{
		"nodes":[0]
	}],
	"nodes":[{
		"name":"古代农民",
		"mesh":0
	}],
	"meshes":[{
		"name":"古代农民",
		"primitives":[{
			"attributes":{
				"POSITION":1,
				"NORMAL":2,
				"TEXCOORD_0":3
			},
			"indices":0,
			"material":0
		}]
	}],
	"accessors":[{
		"bufferView":0,
		"type":"SCALAR",
		"componentType":5123,
		"count":9627,
		"byteOffset":0,
		"min":[0],
		"max":[9626]
	},
	{
		"bufferView":1,
		"type":"VEC3",
		"componentType":5126,
		"count":9627,
		"byteOffset":0,
		"min":[-0.3076664209365845,
		0.00484834797680378,
		-0.44997960329055788],
		"max":[0.3792780935764313,
		1.764965295791626,
		0.7954477667808533]
	},
	{
		"bufferView":1,
		"type":"VEC3",
		"componentType":5126,
		"count":9627,
		"byteOffset":12,
		"min":[-0.9985566735267639,
		-0.9980762004852295,
		-0.999963104724884],
		"max":[0.9985916614532471,
		0.9978821277618408,
		0.9997655153274536]
	},
	{
		"bufferView":1,
		"type":"VEC2",
		"componentType":5126,
		"count":9627,
		"byteOffset":24,
		"min":[0.00032567515154369175,
		0.0003256751224398613],
		"max":[0.9990243911743164,
		0.9822127819061279]
	}],
	"bufferViews":[{
		"buffer":0,
		"byteOffset":0,
		"byteLength":19254,
		"target":34963
	},
	{
		"buffer":0,
		"byteOffset":19256,
		"byteLength":308064,
		"target":34962,
		"byteStride":32
	}],
	"buffers":[{
		"uri":"data:application/octet-stream;base64,",
		"byteLength":327320
	}],
	"materials":[{
		"pbrMetallicRoughness":{
			"baseColorFactor":[0.8,
			0.8,
			0.8,
			1.0],
			"metallicFactor":1.0,
			"roughnessFactor":1.0
		},
		"emissiveFactor":[0.0,
		0.0,
		0.0],
		"alphaMode":"OPAQUE",
		"doubleSided":false,
		"name":"古代农民"
	}]
}