{
	"asset":{
		"version":"2.0",
		"generator":""
	},
	"scenes":[{
		"nodes":[0]
	}],
	"nodes":[{
		"name":"圆盘",
		"mesh":0
	}],
	"meshes":[{
		"name":"圆盘",
		"primitives":[{
			"attributes":{
				"POSITION":1,
				"NORMAL":2,
				"TEXCOORD_0":3
			},
			"indices":0
		}]
	}],
	"accessors":[{
		"min":[0],
		"bufferView":0,
		"type":"SCALAR",
		"max":[191],
		"count":192,
		"componentType":5123,
		"byteOffset":0
	},
	{
		"min":[-1.0,
		0.0,
		-1.0],
		"bufferView":1,
		"type":"VEC3",
		"max":[1.0,
		0.0,
		1.0],
		"count":192,
		"componentType":5126,
		"byteOffset":0
	},
	{
		"min":[0.0,
		1.0,
		0.0],
		"bufferView":1,
		"type":"VEC3",
		"max":[0.0,
		1.0,
		0.0],
		"count":192,
		"componentType":5126,
		"byteOffset":12
	},
	{
		"min":[0.0,
		0.0],
		"bufferView":1,
		"type":"VEC2",
		"max":[1.0,
		1.0],
		"count":192,
		"componentType":5126,
		"byteOffset":24
	}],
	"bufferViews":[{
		"buffer":0,
		"byteOffset":0,
		"byteLength":384,
		"target":34963
	},
	{
		"buffer":0,
		"byteOffset":384,
		"byteLength":6144,
		"target":34962,
		"byteStride":32
	}],
	"buffers":[{
		"uri":"data:application/octet-stream;base64,",
		"byteLength":6528
	}]
}