{
	"asset":{
		"version":"2.0",
		"generator":""
	},
	"scenes":[{
		"nodes":[0]
	}],
	"nodes":[{
		"name":"特警",
		"mesh":0,
		"translation":[-0.0065424018539488319,
		0.6242187023162842,
		0.048369139432907107],
		"rotation":[0.0,
		0.0,
		0.0,
		-1.0],
		"scale":[1.0,
		1.0,
		1.0]
	}],
	"meshes":[{
		"name":"特警",
		"primitives":[{
			"attributes":{
				"POSITION":1,
				"NORMAL":2,
				"TEXCOORD_0":3
			},
			"indices":0,
			"material":0
		}]
	}],
	"accessors":[{
		"bufferView":0,
		"type":"SCALAR",
		"componentType":5123,
		"count":16455,
		"byteOffset":0,
		"min":[0],
		"max":[16454]
	},
	{
		"bufferView":1,
		"type":"VEC3",
		"componentType":5126,
		"count":16455,
		"byteOffset":0,
		"min":[-0.3948240876197815,
		-0.6223923563957214,
		-0.29224634170532229],
		"max":[0.4079088866710663,
		1.19296395778656,
		0.19550806283950807]
	},
	{
		"bufferView":1,
		"type":"VEC3",
		"componentType":5126,
		"count":16455,
		"byteOffset":12,
		"min":[-0.9999381899833679,
		-1.0,
		-0.999931275844574],
		"max":[1.0,
		0.9998653531074524,
		1.0]
	},
	{
		"bufferView":1,
		"type":"VEC2",
		"componentType":5126,
		"count":16455,
		"byteOffset":24,
		"min":[0.00008601702575106174,
		0.00008601702575106174],
		"max":[0.9997396469116211,
		0.9848194122314453]
	}],
	"bufferViews":[{
		"buffer":0,
		"byteOffset":0,
		"byteLength":32910,
		"target":34963
	},
	{
		"buffer":0,
		"byteOffset":32912,
		"byteLength":526560,
		"target":34962,
		"byteStride":32
	}],
	"buffers":[{
		"uri":"data:application/octet-stream;base64,",
		"byteLength":559472
	}],
	"materials":[{
		"pbrMetallicRoughness":{
			"baseColorFactor":[0.8,
			0.8,
			0.8,
			1.0],
			"metallicFactor":1.0,
			"roughnessFactor":1.0
		},
		"emissiveFactor":[0.0,
		0.0,
		0.0],
		"alphaMode":"OPAQUE",
		"doubleSided":false,
		"name":"特警"
	}]
}