{
	"asset":{
		"version":"2.0",
		"generator":""
	},
	"scenes":[{
		"nodes":[0]
	}],
	"nodes":[{
		"name":"秦代士兵",
		"mesh":0,
		"translation":[0.0,
		0.9308404326438904,
		0.0],
		"rotation":[0.7071067690849304,
		0.0,
		0.0,
		-0.7071067690849304],
		"scale":[1.0,
		1.0,
		1.0]
	}],
	"meshes":[{
		"name":"秦代士兵",
		"primitives":[{
			"attributes":{
				"POSITION":1,
				"NORMAL":2,
				"TEXCOORD_0":3
			},
			"indices":0,
			"material":0
		}]
	}],
	"accessors":[{
		"bufferView":0,
		"type":"SCALAR",
		"componentType":5123,
		"count":7017,
		"byteOffset":0,
		"min":[0],
		"max":[7016]
	},
	{
		"bufferView":1,
		"type":"VEC3",
		"componentType":5126,
		"count":7017,
		"byteOffset":0,
		"min":[-0.5900601744651794,
		-0.195548877120018,
		-0.9308404326438904],
		"max":[0.5900601744651794,
		0.195548877120018,
		0.9308404326438904]
	},
	{
		"bufferView":1,
		"type":"VEC3",
		"componentType":5126,
		"count":7017,
		"byteOffset":12,
		"min":[-0.9999977350234985,
		-0.9999977350234985,
		-0.9995338916778565],
		"max":[0.9999977350234985,
		0.9999977350234985,
		0.9862523674964905]
	},
	{
		"bufferView":1,
		"type":"VEC2",
		"componentType":5126,
		"count":7017,
		"byteOffset":24,
		"min":[0.005756000056862831,
		0.005189239978790283],
		"max":[1.992032527923584,
		0.993649959564209]
	}],
	"bufferViews":[{
		"buffer":0,
		"byteOffset":0,
		"byteLength":14034,
		"target":34963
	},
	{
		"buffer":0,
		"byteOffset":14036,
		"byteLength":224544,
		"target":34962,
		"byteStride":32
	}],
	"buffers":[{
		"uri":"data:application/octet-stream;base64,",
		"byteLength":238580
	}],
	"materials":[{
		"pbrMetallicRoughness":{
			"baseColorFactor":[0.75,
			0.75,
			0.75,
			1.0],
			"metallicFactor":1.0,
			"roughnessFactor":1.0
		},
		"emissiveFactor":[0.0,
		0.0,
		0.0],
		"alphaMode":"OPAQUE",
		"doubleSided":false,
		"name":"Default"
	}]
}