{
	"asset":{
		"version":"2.0",
		"generator":""
	},
	"scenes":[{
		"nodes":[0]
	}],
	"nodes":[{
		"name":"盾牌",
		"children":[1]
	},
	{
		"name":"Obj3d66-691525-58-289",
		"mesh":0,
		"translation":[-0.003101969603449106,
		0.39607152342796328,
		0.03730015829205513],
		"rotation":[0.7071067690849304,
		0.0,
		0.0,
		-0.7071067690849304],
		"scale":[1.0,
		0.9999999403953552,
		0.9999999403953552]
	}],
	"meshes":[{
		"name":"Obj3d66-691525-58-289",
		"primitives":[{
			"attributes":{
				"POSITION":1,
				"NORMAL":2,
				"TEXCOORD_0":3
			},
			"indices":0
		}]
	}],
	"accessors":[{
		"min":[0],
		"bufferView":0,
		"type":"SCALAR",
		"max":[1055],
		"count":1056,
		"componentType":5123,
		"byteOffset":0
	},
	{
		"min":[-0.38955065608024599,
		-0.10035115480422974,
		-0.3895503282546997],
		"bufferView":1,
		"type":"VEC3",
		"max":[0.38955041766166689,
		0.12054229527711868,
		0.38955071568489077],
		"count":1056,
		"componentType":5126,
		"byteOffset":0
	},
	{
		"min":[-0.9993290901184082,
		-1.0,
		-0.9993290901184082],
		"bufferView":1,
		"type":"VEC3",
		"max":[0.9993290901184082,
		1.0,
		0.9993290901184082],
		"count":1056,
		"componentType":5126,
		"byteOffset":12
	},
	{
		"min":[-0.24755477905273438,
		-0.98297119140625],
		"bufferView":1,
		"type":"VEC2",
		"max":[0.988006591796875,
		-0.012914896011352539],
		"count":1056,
		"componentType":5126,
		"byteOffset":24
	}],
	"bufferViews":[{
		"buffer":0,
		"byteOffset":0,
		"byteLength":2112,
		"target":34963
	},
	{
		"buffer":0,
		"byteOffset":2112,
		"byteLength":33792,
		"target":34962,
		"byteStride":32
	}],
	"buffers":[{
		"uri":"data:application/octet-stream;base64,",
		"byteLength":35904
	}]
}