{
	"asset":{
		"version":"2.0",
		"generator":""
	},
	"scenes":[{
		"nodes":[0]
	}],
	"nodes":[{
		"name":"Scene 0.1",
		"children":[1],
		"translation":[0.0,
		10.151103973388672,
		0.0],
		"rotation":[0.0,
		0.0,
		0.0,
		-1.0],
		"scale":[1.0,
		1.0,
		1.0]
	},
	{
		"name":"polySurface352",
		"children":[2,
		3]
	},
	{
		"name":"polySurface352-lambert3",
		"mesh":0
	},
	{
		"name":"polySurface352-lambert8",
		"mesh":1
	}],
	"meshes":[{
		"name":"polySurface352-lambert3",
		"primitives":[{
			"attributes":{
				"POSITION":1,
				"NORMAL":2,
				"TEXCOORD_0":3
			},
			"indices":0
		}]
	},
	{
		"name":"polySurface352-lambert8",
		"primitives":[{
			"attributes":{
				"POSITION":5,
				"NORMAL":6,
				"TEXCOORD_0":7
			},
			"indices":4
		}]
	}],
	"accessors":[{
		"min":[0],
		"bufferView":0,
		"type":"SCALAR",
		"max":[11456],
		"count":11457,
		"componentType":5123,
		"byteOffset":0
	},
	{
		"min":[-9.570563316345215,
		-1.228183627128601,
		-5.694047927856445],
		"bufferView":1,
		"type":"VEC3",
		"max":[10.044439315795899,
		10.818211555480957,
		7.2517409324646],
		"count":11457,
		"componentType":5126,
		"byteOffset":0
	},
	{
		"min":[-0.9999998807907105,
		-1.0,
		-1.0],
		"bufferView":1,
		"type":"VEC3",
		"max":[0.9999998807907105,
		1.0,
		1.0],
		"count":11457,
		"componentType":5126,
		"byteOffset":12
	},
	{
		"min":[-5435.0,
		-1238.5625],
		"bufferView":1,
		"type":"VEC2",
		"max":[5435.0,
		1240.5625],
		"count":11457,
		"componentType":5126,
		"byteOffset":24
	},
	{
		"min":[0],
		"bufferView":2,
		"type":"SCALAR",
		"max":[8147],
		"count":8148,
		"componentType":5123,
		"byteOffset":0
	},
	{
		"min":[-30.447349548339845,
		-10.14784049987793,
		-10.917150497436524],
		"bufferView":3,
		"type":"VEC3",
		"max":[30.447349548339845,
		0.49854719638824465,
		10.79006576538086],
		"count":8148,
		"componentType":5126,
		"byteOffset":0
	},
	{
		"min":[-1.0,
		-1.0,
		-1.0],
		"bufferView":3,
		"type":"VEC3",
		"max":[1.0,
		1.0,
		1.0],
		"count":8148,
		"componentType":5126,
		"byteOffset":12
	},
	{
		"min":[0.000030517578125,
		0.000030517578125],
		"bufferView":3,
		"type":"VEC2",
		"max":[1.0,
		1.0],
		"count":8148,
		"componentType":5126,
		"byteOffset":24
	}],
	"bufferViews":[{
		"buffer":0,
		"byteOffset":0,
		"byteLength":22914,
		"target":34963
	},
	{
		"buffer":0,
		"byteOffset":22916,
		"byteLength":366624,
		"target":34962,
		"byteStride":32
	},
	{
		"buffer":1,
		"byteOffset":0,
		"byteLength":16296,
		"target":34963
	},
	{
		"buffer":1,
		"byteOffset":16296,
		"byteLength":260736,
		"target":34962,
		"byteStride":32
	}],
	"buffers":[{
		"uri":"data:application/octet-stream;base64,",
		"byteLength":389540
	},
	{
		"uri":"data:application/octet-stream;base64,",
		"byteLength":277032
	}]
}