{
	"asset":{
		"version":"2.0",
		"generator":""
	},
	"scenes":[{
		"nodes":[0]
	}],
	"nodes":[{
		"name":"医护人员06",
		"mesh":0
	}],
	"meshes":[{
		"name":"医护人员06",
		"primitives":[{
			"attributes":{
				"POSITION":1,
				"NORMAL":2,
				"TEXCOORD_0":3
			},
			"indices":0,
			"material":0
		}]
	}],
	"accessors":[{
		"bufferView":0,
		"type":"SCALAR",
		"componentType":5123,
		"count":20031,
		"byteOffset":0,
		"min":[0],
		"max":[20030]
	},
	{
		"bufferView":1,
		"type":"VEC3",
		"componentType":5126,
		"count":20031,
		"byteOffset":0,
		"min":[-0.29419320821762087,
		0.0018052892992272974,
		-0.15610499680042268],
		"max":[0.29419320821762087,
		1.7413110733032227,
		0.15610499680042268]
	},
	{
		"bufferView":1,
		"type":"VEC3",
		"componentType":5126,
		"count":20031,
		"byteOffset":12,
		"min":[-0.9999699592590332,
		-0.999530017375946,
		-0.9999872446060181],
		"max":[0.9999682307243347,
		0.9997209906578064,
		0.9999834299087524]
	},
	{
		"bufferView":1,
		"type":"VEC2",
		"componentType":5126,
		"count":20031,
		"byteOffset":24,
		"min":[0.00008689957030583173,
		0.00008689957030583173],
		"max":[0.9671299457550049,
		0.9997396469116211]
	}],
	"bufferViews":[{
		"buffer":0,
		"byteOffset":0,
		"byteLength":40062,
		"target":34963
	},
	{
		"buffer":0,
		"byteOffset":40064,
		"byteLength":640992,
		"target":34962,
		"byteStride":32
	}],
	"buffers":[{
		"uri":"data:application/octet-stream;base64,",
		"byteLength":681056
	}],
	"materials":[{
		"pbrMetallicRoughness":{
			"baseColorFactor":[0.8,
			0.8,
			0.8,
			1.0],
			"metallicFactor":1.0,
			"roughnessFactor":1.0
		},
		"emissiveFactor":[0.0,
		0.0,
		0.0],
		"alphaMode":"OPAQUE",
		"doubleSided":false,
		"name":"医护人员06"
	}]
}